<svg xmlns="http://www.w3.org/2000/svg"  viewBox="0 0 48 48" width="420px" height="420px"><linearGradient id="SVGID_1_" x1="40.155" x2="7.845" y1="7.845" y2="40.155" gradientUnits="userSpaceOnUse"><stop offset="0" stop-color="#60affe"/><stop offset=".033" stop-color="#6ab4fe"/><stop offset=".197" stop-color="#97cbfe"/><stop offset=".362" stop-color="#bddeff"/><stop offset=".525" stop-color="#daecff"/><stop offset=".687" stop-color="#eef7ff"/><stop offset=".846" stop-color="#fbfdff"/><stop offset="1" stop-color="#fff"/></linearGradient><path fill="url(#SVGID_1_)" d="M41,16.47V9.53c0-1.121-0.909-2.03-2.03-2.03H9.03C7.909,7.5,7,8.409,7,9.53v6.94c0,1.121,0.909,2.03,2.03,2.03	C7.909,18.5,7,19.409,7,20.53v6.94c0,1.121,0.909,2.03,2.03,2.03C7.909,29.5,7,30.409,7,31.53v6.94c0,1.121,0.909,2.03,2.03,2.03	h29.94c1.121,0,2.03-0.909,2.03-2.03v-6.94c0-1.121-0.909-2.03-2.03-2.03c1.121,0,2.03-0.909,2.03-2.03v-6.94	c0-1.121-0.909-2.03-2.03-2.03C40.091,18.5,41,17.591,41,16.47z"/><circle cx="34" cy="13" r="2" fill="#2e9bfe"/><path fill="#2e9bfe" d="M13.5,11.5c-0.828-0.012-1.509,0.65-1.521,1.479c-0.012,0.828,0.65,1.509,1.479,1.521c0.014,0,0.028,0,0.042,0	h9c0.828,0.012,1.509-0.65,1.521-1.479c0.012-0.828-0.65-1.509-1.479-1.521c-0.014,0-0.028,0-0.042,0H13.5z"/><circle cx="34" cy="24" r="2" fill="#2e9bfe"/><circle cx="34" cy="35" r="2" fill="#2e9bfe"/><path fill="#2e9bfe" d="M13.5,33.5c-0.828-0.012-1.509,0.65-1.521,1.479c-0.012,0.828,0.65,1.509,1.479,1.521c0.014,0,0.028,0,0.042,0	h9c0.828,0.012,1.509-0.65,1.521-1.479c0.012-0.828-0.65-1.509-1.479-1.521c-0.014,0-0.028,0-0.042,0H13.5z"/><path fill="none" stroke="#2e9bfe" stroke-linecap="round" stroke-linejoin="round" stroke-miterlimit="10" stroke-width="3" d="M29.255,18.5H9.5c-1.105,0-2-0.895-2-2v-7c0-1.105,0.895-2,2-2h4.649"/><path fill="none" stroke="#2e9bfe" stroke-linecap="round" stroke-linejoin="round" stroke-miterlimit="10" stroke-width="3" d="M19.34,7.5H38.5c1.105,0,2,0.895,2,2v7c0,1.105-0.895,2-2,2h-3.926"/><path fill="#2e9bfe" d="M13.5,22.5c-0.828-0.012-1.509,0.65-1.521,1.479c-0.012,0.828,0.65,1.509,1.479,1.521c0.014,0,0.028,0,0.042,0	h9c0.828,0.012,1.509-0.65,1.521-1.479c0.012-0.828-0.65-1.509-1.479-1.521c-0.014,0-0.028,0-0.042,0H13.5z"/><path fill="none" stroke="#2e9bfe" stroke-linecap="round" stroke-linejoin="round" stroke-miterlimit="10" stroke-width="3" d="M12.17,29.5H9.5c-1.105,0-2-0.895-2-2v-7c0-1.105,0.895-2,2-2h2.096"/><path fill="none" stroke="#2e9bfe" stroke-linecap="round" stroke-linejoin="round" stroke-miterlimit="10" stroke-width="3" d="M36.532,18.5H38.5c1.105,0,2,0.895,2,2v7c0,1.105-0.895,2-2,2H18.378"/><path fill="none" stroke="#2e9bfe" stroke-linecap="round" stroke-linejoin="round" stroke-miterlimit="10" stroke-width="3" d="M30.957,40.5H9.5c-1.105,0-2-0.895-2-2v-7c0-1.105,0.895-2,2-2h1.117"/><path fill="none" stroke="#2e9bfe" stroke-linecap="round" stroke-linejoin="round" stroke-miterlimit="10" stroke-width="3" d="M37.511,29.5H38.5c1.105,0,2,0.895,2,2v7c0,1.105-0.895,2-2,2h-3.287"/></svg>